<mxfile host="app.diagrams.net" agent="Mozilla/5.0 (X11; Linux x86_64) AppleWebKit/537.36 (KHTML, like Gecko) Chrome/136.0.0.0 Safari/537.36" version="27.0.5">
  <diagram name="Page-1" id="1IiyMTz97V4rk0lP8h-W">
    <mxGraphModel dx="1382" dy="703" grid="1" gridSize="10" guides="1" tooltips="1" connect="1" arrows="1" fold="1" page="1" pageScale="1" pageWidth="1200" pageHeight="700" math="0" shadow="0">
      <root>
        <mxCell id="0" />
        <mxCell id="1" parent="0" />
        <mxCell id="sUHwTB31lf9sHq8WZwRf-1" value="Room" style="rounded=0;whiteSpace=wrap;html=1;" parent="1" vertex="1">
          <mxGeometry x="10" y="10" width="550" height="320" as="geometry" />
        </mxCell>
        <mxCell id="sUHwTB31lf9sHq8WZwRf-2" value="" style="rounded=0;whiteSpace=wrap;html=1;" parent="1" vertex="1">
          <mxGeometry x="640" y="10" width="550" height="320" as="geometry" />
        </mxCell>
        <mxCell id="sUHwTB31lf9sHq8WZwRf-3" value="" style="rounded=0;whiteSpace=wrap;html=1;" parent="1" vertex="1">
          <mxGeometry x="10" y="390" width="550" height="300" as="geometry" />
        </mxCell>
        <mxCell id="sUHwTB31lf9sHq8WZwRf-4" value="" style="rounded=0;whiteSpace=wrap;html=1;" parent="1" vertex="1">
          <mxGeometry x="640" y="390" width="550" height="300" as="geometry" />
        </mxCell>
        <mxCell id="sUHwTB31lf9sHq8WZwRf-5" value="" style="rounded=1;whiteSpace=wrap;html=1;" parent="1" vertex="1">
          <mxGeometry x="390" y="388" width="120" height="4" as="geometry" />
        </mxCell>
        <mxCell id="sUHwTB31lf9sHq8WZwRf-6" value="door&lt;div&gt;&lt;br&gt;&lt;/div&gt;" style="rounded=1;whiteSpace=wrap;html=1;" parent="1" vertex="1">
          <mxGeometry x="40" y="328" width="120" height="4" as="geometry" />
        </mxCell>
        <mxCell id="sUHwTB31lf9sHq8WZwRf-7" value="" style="rounded=1;whiteSpace=wrap;html=1;" parent="1" vertex="1">
          <mxGeometry x="680" y="328" width="120" height="4" as="geometry" />
        </mxCell>
        <mxCell id="sUHwTB31lf9sHq8WZwRf-8" value="" style="rounded=1;whiteSpace=wrap;html=1;" parent="1" vertex="1">
          <mxGeometry x="855" y="388" width="120" height="4" as="geometry" />
        </mxCell>
        <mxCell id="sUHwTB31lf9sHq8WZwRf-53" style="edgeStyle=orthogonalEdgeStyle;rounded=0;orthogonalLoop=1;jettySize=auto;html=1;exitX=0.5;exitY=1;exitDx=0;exitDy=0;entryX=0.5;entryY=0;entryDx=0;entryDy=0;" parent="1" source="sUHwTB31lf9sHq8WZwRf-10" target="sUHwTB31lf9sHq8WZwRf-12" edge="1">
          <mxGeometry relative="1" as="geometry">
            <Array as="points">
              <mxPoint x="70" y="370" />
              <mxPoint x="740" y="370" />
              <mxPoint x="740" y="140" />
              <mxPoint x="1040" y="140" />
            </Array>
          </mxGeometry>
        </mxCell>
        <mxCell id="sUHwTB31lf9sHq8WZwRf-59" value="2" style="edgeLabel;html=1;align=center;verticalAlign=middle;resizable=0;points=[];" parent="sUHwTB31lf9sHq8WZwRf-53" vertex="1" connectable="0">
          <mxGeometry x="-0.565" y="3" relative="1" as="geometry">
            <mxPoint as="offset" />
          </mxGeometry>
        </mxCell>
        <mxCell id="sUHwTB31lf9sHq8WZwRf-10" value="" style="ellipse;whiteSpace=wrap;html=1;aspect=fixed;fillColor=#ffe6cc;strokeColor=#d79b00;" parent="1" vertex="1">
          <mxGeometry x="50" y="100" width="40" height="40" as="geometry" />
        </mxCell>
        <mxCell id="sUHwTB31lf9sHq8WZwRf-9" value="Production&lt;div&gt;Machine&lt;/div&gt;" style="verticalLabelPosition=bottom;verticalAlign=top;html=1;shape=mxgraph.basic.polygon;polyCoords=[[0.25,0],[0.75,0],[1,0.25],[1,0.75],[0.75,1],[0.25,1],[0,0.75],[0,0.25]];polyline=0;spacing=-40;" parent="1" vertex="1">
          <mxGeometry x="30" y="20" width="80" height="80" as="geometry" />
        </mxCell>
        <mxCell id="sUHwTB31lf9sHq8WZwRf-11" value="Conveyor" style="shape=process;whiteSpace=wrap;html=1;backgroundOutline=1;" parent="1" vertex="1">
          <mxGeometry x="1060" y="20" width="120" height="300" as="geometry" />
        </mxCell>
        <mxCell id="sUHwTB31lf9sHq8WZwRf-54" style="edgeStyle=orthogonalEdgeStyle;rounded=0;orthogonalLoop=1;jettySize=auto;html=1;exitX=0.5;exitY=1;exitDx=0;exitDy=0;entryX=0.5;entryY=0;entryDx=0;entryDy=0;" parent="1" source="sUHwTB31lf9sHq8WZwRf-12" target="sUHwTB31lf9sHq8WZwRf-14" edge="1">
          <mxGeometry relative="1" as="geometry">
            <mxPoint x="1110" y="570" as="targetPoint" />
            <Array as="points">
              <mxPoint x="770" y="190" />
              <mxPoint x="770" y="370" />
              <mxPoint x="910" y="370" />
              <mxPoint x="910" y="520" />
              <mxPoint x="1130" y="520" />
            </Array>
          </mxGeometry>
        </mxCell>
        <mxCell id="sUHwTB31lf9sHq8WZwRf-60" value="3" style="edgeLabel;html=1;align=center;verticalAlign=middle;resizable=0;points=[];" parent="sUHwTB31lf9sHq8WZwRf-54" vertex="1" connectable="0">
          <mxGeometry x="-0.646" y="-1" relative="1" as="geometry">
            <mxPoint as="offset" />
          </mxGeometry>
        </mxCell>
        <mxCell id="sUHwTB31lf9sHq8WZwRf-12" value="" style="ellipse;whiteSpace=wrap;html=1;aspect=fixed;fillColor=#ffe6cc;strokeColor=#d79b00;" parent="1" vertex="1">
          <mxGeometry x="1020" y="150" width="40" height="40" as="geometry" />
        </mxCell>
        <mxCell id="sUHwTB31lf9sHq8WZwRf-13" value="Production&lt;div&gt;Machine&lt;/div&gt;" style="verticalLabelPosition=bottom;verticalAlign=top;html=1;shape=mxgraph.basic.polygon;polyCoords=[[0.25,0],[0.75,0],[1,0.25],[1,0.75],[0.75,1],[0.25,1],[0,0.75],[0,0.25]];polyline=0;spacing=-40;" parent="1" vertex="1">
          <mxGeometry x="1090" y="590" width="80" height="80" as="geometry" />
        </mxCell>
        <mxCell id="sUHwTB31lf9sHq8WZwRf-55" style="edgeStyle=orthogonalEdgeStyle;rounded=0;orthogonalLoop=1;jettySize=auto;html=1;exitX=0;exitY=0;exitDx=0;exitDy=0;" parent="1" source="sUHwTB31lf9sHq8WZwRf-14" edge="1">
          <mxGeometry relative="1" as="geometry">
            <mxPoint x="710" y="600" as="targetPoint" />
            <Array as="points">
              <mxPoint x="1110" y="556" />
              <mxPoint x="1110" y="550" />
              <mxPoint x="710" y="550" />
            </Array>
          </mxGeometry>
        </mxCell>
        <mxCell id="sUHwTB31lf9sHq8WZwRf-61" value="4" style="edgeLabel;html=1;align=center;verticalAlign=middle;resizable=0;points=[];" parent="sUHwTB31lf9sHq8WZwRf-55" vertex="1" connectable="0">
          <mxGeometry x="0.168" y="-1" relative="1" as="geometry">
            <mxPoint as="offset" />
          </mxGeometry>
        </mxCell>
        <mxCell id="sUHwTB31lf9sHq8WZwRf-14" value="" style="ellipse;whiteSpace=wrap;html=1;aspect=fixed;fillColor=#ffe6cc;strokeColor=#d79b00;" parent="1" vertex="1">
          <mxGeometry x="1110" y="550" width="40" height="40" as="geometry" />
        </mxCell>
        <mxCell id="sUHwTB31lf9sHq8WZwRf-31" value="Robot" style="ellipse;whiteSpace=wrap;html=1;aspect=fixed;fillColor=#d80073;fontColor=#ffffff;strokeColor=#A50040;" parent="1" vertex="1">
          <mxGeometry x="450" y="260" width="40" height="40" as="geometry" />
        </mxCell>
        <mxCell id="sUHwTB31lf9sHq8WZwRf-32" value="" style="rounded=1;whiteSpace=wrap;html=1;rotation=0;" parent="1" vertex="1">
          <mxGeometry x="638" y="80" width="4" height="120" as="geometry" />
        </mxCell>
        <mxCell id="sUHwTB31lf9sHq8WZwRf-49" value="Factory - Scenario 0" style="text;html=1;align=center;verticalAlign=middle;resizable=0;points=[];autosize=1;strokeColor=none;fillColor=none;fontSize=30;" parent="1" vertex="1">
          <mxGeometry x="450" y="332" width="290" height="50" as="geometry" />
        </mxCell>
        <mxCell id="sUHwTB31lf9sHq8WZwRf-51" style="edgeStyle=orthogonalEdgeStyle;rounded=0;orthogonalLoop=1;jettySize=auto;html=1;exitX=0;exitY=0;exitDx=0;exitDy=0;entryX=1;entryY=0.5;entryDx=0;entryDy=0;" parent="1" source="sUHwTB31lf9sHq8WZwRf-31" target="sUHwTB31lf9sHq8WZwRf-10" edge="1">
          <mxGeometry relative="1" as="geometry">
            <Array as="points">
              <mxPoint x="130" y="266" />
              <mxPoint x="130" y="120" />
            </Array>
          </mxGeometry>
        </mxCell>
        <mxCell id="sUHwTB31lf9sHq8WZwRf-58" value="1" style="edgeLabel;html=1;align=center;verticalAlign=middle;resizable=0;points=[];" parent="sUHwTB31lf9sHq8WZwRf-51" vertex="1" connectable="0">
          <mxGeometry x="0.1159" y="3" relative="1" as="geometry">
            <mxPoint as="offset" />
          </mxGeometry>
        </mxCell>
        <mxCell id="sUHwTB31lf9sHq8WZwRf-57" style="edgeStyle=orthogonalEdgeStyle;rounded=0;orthogonalLoop=1;jettySize=auto;html=1;exitX=1;exitY=0.5;exitDx=0;exitDy=0;entryX=0;entryY=0.5;entryDx=0;entryDy=0;" parent="1" source="sUHwTB31lf9sHq8WZwRf-38" target="sUHwTB31lf9sHq8WZwRf-14" edge="1">
          <mxGeometry relative="1" as="geometry" />
        </mxCell>
        <mxCell id="sUHwTB31lf9sHq8WZwRf-62" value="5" style="edgeLabel;html=1;align=center;verticalAlign=middle;resizable=0;points=[];" parent="sUHwTB31lf9sHq8WZwRf-57" vertex="1" connectable="0">
          <mxGeometry x="-0.5761" y="1" relative="1" as="geometry">
            <mxPoint as="offset" />
          </mxGeometry>
        </mxCell>
        <mxCell id="sUHwTB31lf9sHq8WZwRf-67" value="" style="group" parent="1" vertex="1" connectable="0">
          <mxGeometry x="300" y="600" width="250" height="80" as="geometry" />
        </mxCell>
        <mxCell id="sUHwTB31lf9sHq8WZwRf-65" value="" style="rounded=0;whiteSpace=wrap;html=1;" parent="sUHwTB31lf9sHq8WZwRf-67" vertex="1">
          <mxGeometry width="250" height="80" as="geometry" />
        </mxCell>
        <mxCell id="sUHwTB31lf9sHq8WZwRf-48" value="" style="ellipse;whiteSpace=wrap;html=1;aspect=fixed;fillColor=#ffe6cc;strokeColor=#d79b00;" parent="sUHwTB31lf9sHq8WZwRf-67" vertex="1">
          <mxGeometry x="10" y="25" width="30" height="30" as="geometry" />
        </mxCell>
        <mxCell id="sUHwTB31lf9sHq8WZwRf-63" value="Visitable target = were the robot must go when ask to visit the component.&lt;div&gt;(for charging stations, the robot charge as soon as it is completely inside a station, no matter the position)&lt;/div&gt;" style="text;html=1;align=center;verticalAlign=middle;whiteSpace=wrap;rounded=0;" parent="sUHwTB31lf9sHq8WZwRf-67" vertex="1">
          <mxGeometry x="40" width="210" height="80" as="geometry" />
        </mxCell>
        <mxCell id="sUHwTB31lf9sHq8WZwRf-35" value="&lt;div&gt;&lt;span style=&quot;background-color: transparent; color: light-dark(rgb(0, 0, 0), rgb(255, 255, 255));&quot;&gt;Charging&lt;/span&gt;&lt;/div&gt;&lt;div&gt;Station&lt;/div&gt;" style="whiteSpace=wrap;html=1;aspect=fixed;fillColor=#d5e8d4;strokeColor=#82b366;" parent="1" vertex="1">
          <mxGeometry x="660" y="30" width="100" height="100" as="geometry" />
        </mxCell>
        <mxCell id="sUHwTB31lf9sHq8WZwRf-38" value="&lt;div&gt;&lt;span style=&quot;background-color: transparent; color: light-dark(rgb(0, 0, 0), rgb(255, 255, 255));&quot;&gt;Charging&lt;/span&gt;&lt;/div&gt;&lt;div&gt;Station&lt;/div&gt;" style="whiteSpace=wrap;html=1;aspect=fixed;fillColor=#d5e8d4;strokeColor=#82b366;" parent="1" vertex="1">
          <mxGeometry x="660" y="570" width="100" height="100" as="geometry" />
        </mxCell>
        <mxCell id="sUHwTB31lf9sHq8WZwRf-42" value="&lt;div&gt;&lt;span style=&quot;background-color: transparent; color: light-dark(rgb(0, 0, 0), rgb(255, 255, 255));&quot;&gt;Charging&lt;/span&gt;&lt;/div&gt;&lt;div&gt;Station&lt;/div&gt;" style="rounded=0;whiteSpace=wrap;html=1;fillColor=#d5e8d4;strokeColor=#82b366;" parent="1" vertex="1">
          <mxGeometry x="30" y="410" width="100" height="260" as="geometry" />
        </mxCell>
      </root>
    </mxGraphModel>
  </diagram>
</mxfile>
